<?xml version="1.0" standalone="no"?><!DOCTYPE svg PUBLIC "-//W3C//DTD SVG 1.1//EN" "http://www.w3.org/Graphics/SVG/1.1/DTD/svg11.dtd"><svg t="1727944020714" class="icon" viewBox="0 0 1243 1024" version="1.1" xmlns="http://www.w3.org/2000/svg" p-id="2127" xmlns:xlink="http://www.w3.org/1999/xlink" width="242.7734375" height="200"><path d="M292.571429 36.571429A256 256 0 0 0 36.571429 292.571429v438.857142A256 256 0 0 0 292.571429 987.428571h658.285714a256 256 0 0 0 256-256V292.571429A256 256 0 0 0 950.857143 36.571429H292.571429z m0 73.142857h658.285714A182.857143 182.857143 0 0 1 1133.714286 292.571429v438.857142a182.857143 182.857143 0 0 1-182.857143 182.857143H292.571429A182.857143 182.857143 0 0 1 109.714286 731.428571V292.571429A182.857143 182.857143 0 0 1 292.571429 109.714286z" p-id="2128" fill="#707070"></path><path d="M368.64 305.444571c-64.365714 0-114.688 21.650286-149.796571 66.121143-32.182857 39.789714-47.981714 90.697143-47.981715 152.722286 0 62.025143 15.213714 112.347429 46.811429 150.966857 34.523429 42.715429 84.260571 64.365714 149.211428 64.365714 44.470857 0 83.090286-12.873143 115.273143-38.034285 34.523429-26.916571 56.173714-64.950857 65.536-113.517715h-46.226285c-8.192 36.278857-25.161143 63.780571-49.737143 82.505143-23.405714 17.554286-51.492571 26.331429-84.845715 26.331429-49.152 0-86.016-16.384-111.762285-48.566857-24.576-30.427429-36.278857-71.972571-36.278857-124.050286s12.288-93.622857 36.864-125.220571c26.331429-33.938286 63.780571-50.907429 112.347428-50.907429 32.768 0 60.269714 7.606857 83.090286 23.405714 23.405714 16.384 38.619429 39.789714 44.470857 70.217143h46.226286c-5.851429-41.545143-24.576-74.898286-56.173715-99.474286-31.597714-24.576-70.802286-36.864-117.028571-36.864zM617.910857 313.636571V731.428571h47.396572V313.636571zM753.078857 313.636571V731.428571h47.981714V537.161143h219.428572v-41.545143h-219.428572v-140.434286h231.716572v-41.545143z" p-id="2129" fill="#707070"></path></svg>