<svg t="1745080137627" class="icon" viewBox="0 0 1024 1024" version="1.1" xmlns="http://www.w3.org/2000/svg" p-id="14092" width="200" height="200"><path d="M23.273 141.964h977.454V793.6H23.273z" fill="#083F80" p-id="14093"></path><path d="M23.273 370.036h977.454V563.2H23.273z" fill="#FFFFFF" p-id="14094"></path><path d="M605.347 140.428v651.636H412.183V140.428z" fill="#FFFFFF" p-id="14095"></path><path d="M1000.727 721.455V793.6H884.364L23.273 221.09v-79.126h114.036z" fill="#FFFFFF" p-id="14096"></path><path d="M1000.727 214.11v-72.146H884.364L23.273 712.145V793.6h114.036z" fill="#FFFFFF" p-id="14097"></path><path d="M23.273 193.164l262.982 176.872h79.127L23.272 141.964z m977.454 546.909L737.745 563.2h-79.127l342.11 230.4zM605.091 351.418v18.618h51.2l344.436-228.072h-86.109zM418.909 584.145V563.2h-51.2L23.273 793.6h86.109z m34.909-442.181h114.037V793.6H453.818z" fill="#B7333C" p-id="14098"></path><path d="M20.852 524.59V410.555h979.782v114.037z" fill="#B7333C" p-id="14099"></path></svg>