<svg t="1718787506325" class="icon" viewBox="0 0 1536 1024" version="1.1" xmlns="http://www.w3.org/2000/svg" p-id="28550" width="200" height="200"><path d="M1361.92 0h-465.92v312.32L1361.92 0zM640 0H174.08l465.92 312.32V0zM1536 343.04V112.64l-337.92 225.28H1536zM0 112.64v225.28h337.92L0 112.64z m0 568.32v225.28l337.92-225.28H0zM174.08 1024h465.92v-312.32L174.08 1024zM1536 911.36v-225.28h-337.92l337.92 225.28zM896 1024h465.92l-465.92-312.32V1024z" fill="#1B2F67" p-id="28551"></path><path d="M512 343.04L0 0v76.8l399.36 266.24H512z m512 337.92L1536 1024v-76.8l-399.36-266.24H1024z m0-337.92L1536 0h-112.64l-512 343.04H1024z m-512 337.92L0 1024h112.64l512-343.04H512z" fill="#C31C2C" p-id="28552"></path><path d="M0 614.4v66.56h337.92L0 911.36V1024l512-343.04h112.64L112.64 1024h56.32l465.92-312.32V1024h51.2v-409.6H0z m1024-271.36h-112.64l512-343.04h-56.32l-465.92 312.32V0h-51.2v409.6H1536V343.04h-337.92L1536 112.64V0L1024 343.04zM691.2 0h-51.2v312.32L174.08 0H0l512 343.04H399.36L0 76.8v35.84l337.92 225.28H0V409.6h691.2V0z m153.6 1024h51.2v-312.32l465.92 312.32H1536l-512-343.04h112.64l399.36 266.24v-35.84l-337.92-225.28H1536V614.4H844.8v409.6z" fill="#FFFFFF" p-id="28553"></path><path d="M844.8 0h-153.6v409.6H0v204.8h691.2v409.6h153.6v-409.6H1536V409.6H844.8V0z" fill="#C31C2C" p-id="28554"></path></svg>