<?xml version="1.0" standalone="no"?><!DOCTYPE svg PUBLIC "-//W3C//DTD SVG 1.1//EN" "http://www.w3.org/Graphics/SVG/1.1/DTD/svg11.dtd"><svg t="1726050969540" class="icon" viewBox="0 0 1024 1024" version="1.1" xmlns="http://www.w3.org/2000/svg" p-id="1526" xmlns:xlink="http://www.w3.org/1999/xlink" width="200" height="200"><path d="M174.26432 622.82752l21.31456-72.064h99.47136a869.632 869.632 0 0 1-1.01376-42.62912c0-12.51328 0.3328-25.0368 1.01376-37.5552h-120.78592l21.31456-72.064h107.59168c11.49952-61.91616 32.98816-115.5328 64.45056-160.87552 52.78208-76.45696 125.69088-114.69312 218.73152-114.69312 79.17056 0 140.66176 24.86784 184.47872 74.60352 43.81184 49.73568 68.08064 106.24 72.82176 169.50272h-82.71872c-9.12896-48.03584-27.74016-86.09792-55.81824-114.18624-28.08832-28.07808-67.328-42.12224-117.73952-42.12224-61.92128 0-111.83104 25.8816-149.71392 77.64992-20.98176 28.42112-36.03456 65.13664-45.16864 110.12608h283.18208l-21.30944 72.064h-272.02048a936.2944 936.2944 0 0 0-1.52064 54.8096c0 8.80128 0.16896 17.2544 0.50688 25.37472h294.3488l-21.30944 72.064h-265.42592c8.12032 44.32384 22.49728 82.71872 43.136 115.2 34.16576 54.13888 85.25824 81.19808 153.2672 81.19808 62.592 0 110.28992-28.58496 143.10912-85.76512 17.25952-30.11072 30.11072-69.69344 38.56896-118.75328h82.71872c-7.43936 78.49472-31.96928 144.3072-73.57952 197.42208-49.7408 63.93856-116.73088 95.91296-200.97024 95.91296-72.75008 0-133.81632-26.2144-183.20896-78.66368-46.68928-49.38752-76.63104-118.2464-89.82528-206.55104h-127.8976z" p-id="1527"></path></svg>