<?xml version="1.0" standalone="no"?><!DOCTYPE svg PUBLIC "-//W3C//DTD SVG 1.1//EN" "http://www.w3.org/Graphics/SVG/1.1/DTD/svg11.dtd"><svg t="1731505718002" class="icon" viewBox="0 0 1984 1024" version="1.1" xmlns="http://www.w3.org/2000/svg" p-id="8095" xmlns:xlink="http://www.w3.org/1999/xlink" width="387.5" height="200"><path d="M1856 1024H128c-70.4 0-128-57.6-128-128V128C0 57.6 57.6 0 128 0h1728c70.4 0 128 57.6 128 128v768c0 70.4-57.6 128-128 128zM128 64c-38.4 0-64 25.6-64 64v768c0 38.4 25.6 64 64 64h1728c38.4 0 64-25.6 64-64V128c0-38.4-25.6-64-64-64H128z" fill="#1afa29" p-id="8096"></path><path d="M416 416l51.2-185.6 64 12.8-32 115.2h96c12.8-44.8 19.2-96 32-147.2l64 6.4c-6.4 51.2-19.2 96-25.6 140.8H960v57.6h-307.2c0 6.4-6.4 25.6-19.2 57.6h256v51.2c-19.2 51.2-51.2 102.4-96 140.8 51.2 25.6 108.8 51.2 179.2 76.8l-32 57.6c-76.8-25.6-140.8-57.6-192-96-51.2 32-115.2 64-185.6 96l-32-57.6c64-25.6 121.6-51.2 166.4-76.8-44.8-32-70.4-70.4-96-108.8-44.8 96-102.4 172.8-172.8 224l-32-57.6c89.6-76.8 153.6-185.6 198.4-320H416z m211.2 115.2c19.2 38.4 57.6 70.4 102.4 102.4 38.4-32 70.4-70.4 89.6-102.4h-192z m160-320c44.8 32 83.2 64 108.8 102.4l-44.8 44.8c-25.6-32-64-70.4-108.8-102.4l44.8-44.8zM1024 230.4h569.6v51.2H1408V320h140.8v147.2h-480V320h140.8v-38.4H1024v-51.2z m204.8 467.2c-44.8 38.4-96 64-160 96l-38.4-44.8c64-25.6 115.2-51.2 153.6-83.2l44.8 32z m-192-102.4h550.4v51.2h-236.8v83.2c0 44.8-19.2 64-64 64h-57.6l-12.8-51.2h51.2c19.2 0 25.6-6.4 25.6-25.6v-70.4h-256v-51.2z m64-83.2h428.8v51.2h-428.8V512zM1216 428.8v-51.2h-83.2v51.2H1216z m134.4-102.4v-38.4h-83.2v38.4h83.2z m0 102.4v-51.2h-83.2v51.2h83.2z m96 236.8c57.6 25.6 102.4 57.6 147.2 89.6l-44.8 44.8c-32-25.6-83.2-57.6-147.2-96l44.8-38.4z m44.8-236.8v-51.2H1408v51.2h83.2z" fill="#1afa29" p-id="8097"></path></svg>