<?xml version="1.0" standalone="no"?><!DOCTYPE svg PUBLIC "-//W3C//DTD SVG 1.1//EN" "http://www.w3.org/Graphics/SVG/1.1/DTD/svg11.dtd"><svg t="1728382961355" class="icon" viewBox="0 0 1024 1024" version="1.1" xmlns="http://www.w3.org/2000/svg" p-id="9469" xmlns:xlink="http://www.w3.org/1999/xlink" width="200" height="200"><path d="M365.109512 956.775946 143.171794 679.553087c0 0-11.215436-103.43886 88.76465-59.864436 57.685817 25.88453 78.273714 80.226183 78.273714 80.226183l2.067079-422.281629c0 0 59.638285-88.930425 111.526049 0l0.945535 267.351024c0 0 64.494896-87.75874 140.372028 6.135744 0 0 56.906058-95.624894 136.854924 4.631484 0 0 56.685024-110.579491 113.592105 9.595542l0 335.638293c0 0-3.294023 26.164916-49.432853 55.789631L365.109512 956.774923 365.109512 956.775946zM365.109512 956.775946" fill="#272636" p-id="9470"></path><path d="M367.060957 63.228043c-123.800607 0-224.222761 100.422154-224.222761 224.222761 0 83.07302 45.692668 154.763806 112.808252 193.485713l0-69.292156c-34.700313-30.742165-57.017598-75.096349-57.017598-125.083833 0-92.501764 75.03495-167.542854 167.536714-167.542854 92.505857 0 167.542854 75.04109 167.542854 167.542854 0 48.981574-21.423939 92.667539-54.900378 123.298164l0 70.907956c66.893526-38.82833 112.475677-110.409622 112.475677-193.315844C591.284741 163.650197 490.862587 63.228043 367.060957 63.228043L367.060957 63.228043zM367.060957 63.228043" fill="#272636" p-id="9471"></path></svg>