<?xml version="1.0" standalone="no"?><!DOCTYPE svg PUBLIC "-//W3C//DTD SVG 1.1//EN" "http://www.w3.org/Graphics/SVG/1.1/DTD/svg11.dtd"><svg t="1728382889953" class="icon" viewBox="0 0 1024 1024" version="1.1" xmlns="http://www.w3.org/2000/svg" p-id="8448" xmlns:xlink="http://www.w3.org/1999/xlink" width="200" height="200"><path d="M527.124318 0l413.753013 155.646335a38.28695 38.28695 0 0 1 26.224359 37.037683v287.85356c0 342.299057-361.64221 492.651369-450.155823 539.416948a35.726978 35.726978 0 0 1-32.992927 0C395.265249 973.363025 56.88807 824.485258 56.88807 482.534357V193.708007a39.536217 39.536217 0 0 1 25.425648-36.976244L501.923948 0h25.20037z m-15.134558 255.997261a125.295299 125.295299 0 0 0-122.479329 106.668938 128.438946 128.438946 0 0 0 81.693846 142.221839 40.21205 40.21205 0 0 0-0.573434 7.106484v213.327637a41.379397 41.379397 0 1 0 82.717835 0V511.994522a38.706786 38.706786 0 0 0-0.624634-7.055285 128.572064 128.572064 0 0 0 81.407129-142.160399A125.397698 125.397698 0 0 0 511.98976 255.997261z" fill="#515151" p-id="8449"></path></svg>