<?xml version="1.0" standalone="no"?><!DOCTYPE svg PUBLIC "-//W3C//DTD SVG 1.1//EN" "http://www.w3.org/Graphics/SVG/1.1/DTD/svg11.dtd"><svg t="1739488279389" class="icon" viewBox="0 0 1024 1024" version="1.1" xmlns="http://www.w3.org/2000/svg" p-id="22996" xmlns:xlink="http://www.w3.org/1999/xlink" width="200" height="200"><path d="M439.383149 566.468085C467.488681 566.468085 490.212766 589.758638 490.212766 618.343489V972.146383C490.212766 1000.68766 467.401532 1024 439.383149 1024H83.510468C55.448511 1024 32.680851 1000.774809 32.680851 972.124596V618.321702C32.680851 589.671489 55.426723 566.468085 83.510468 566.468085h355.872681zM1013.106383 705.644936h-91.027064v1.285447c0 150.985532-117.977872 273.495149-263.538383 273.495149H555.574468v-110.679149h102.966468c87.606468 0 158.611064-73.357617 159.330043-164.101447h-81.004936L874.975319 544.680851 1013.106383 705.644936zM167.718128 675.404255C153.294979 675.44783 141.617021 686.581106 141.617021 700.307064v189.853957C141.617021 903.886979 153.36034 915.06383 167.718128 915.06383h209.157446c14.444936 0 26.188255-11.155064 26.188256-24.902809v-189.853957c0-13.747745-11.721532-24.902809-26.188256-24.902809h-209.157446zM468.36017 154.188255h-102.901106c-87.606468 0-158.611064 73.33583-159.330043 164.07966h81.004936L149.024681 479.319149 10.893617 318.267915h91.027064v-1.26366C101.920681 166.018723 219.898553 43.574468 365.459064 43.574468H468.425532l-0.065362 110.613787zM918.702298 0.065362C946.720681 0.065362 969.531915 23.203404 969.531915 51.875404V405.678298C969.531915 434.219574 946.720681 457.531915 918.702298 457.531915H562.829617C534.76766 457.531915 512 434.306723 512 405.656511V51.853617C512 23.203404 534.811234 0 562.829617 0l355.872681 0.065362zM625.315404 108.93617C610.870468 108.93617 599.148936 120.091234 599.148936 133.838979v189.853957c0 13.725957 11.721532 24.902809 26.166468 24.902809H834.451064c14.444936 0 26.166468-11.155064 26.166468-24.902809v-189.766808c0-13.769532-11.721532-24.924596-26.166468-24.924596L625.293617 108.93617z" fill="#131415" p-id="22997"></path></svg>