<svg t="1745080988217" class="icon" viewBox="0 0 1024 1024" version="1.1" xmlns="http://www.w3.org/2000/svg" p-id="47943" width="200" height="200"><path d="M972.6 719.5h-74.2v-193c0-24.6-20-44.5-44.5-44.5H542.2V333.6h74.2c24.6 0 44.5-20 44.5-44.5V81.2c0-24.6-20-44.5-44.5-44.5H408.6c-24.6 0-44.5 20-44.5 44.5V289c0 24.6 20 44.5 44.5 44.5h74.2V482H171.1c-24.6 0-44.5 20-44.5 44.5v193H52.4c-24.6 0-44.5 20-44.5 44.5v207.8c0 24.6 20 44.5 44.5 44.5h207.8c24.6 0 44.5-20 44.5-44.5V764c0-24.6-20-44.5-44.5-44.5H186V541.4h296.9v178.1h-74.2c-24.6 0-44.5 20-44.5 44.5v207.8c0 24.6 20 44.5 44.5 44.5h207.8c24.6 0 44.5-20 44.5-44.5V764c0-24.6-20-44.5-44.5-44.5h-74.2V541.4H839v178.1h-74.2c-24.6 0-44.5 20-44.5 44.5v207.8c0 24.6 20 44.5 44.5 44.5h207.8c24.6 0 44.5-20 44.5-44.5V764c0.1-24.6-19.9-44.5-44.5-44.5zM423.4 96.1h178.1v178.1H423.4V96.1zM245.3 778.8V957H67.2V778.8h178.1zM601.6 957H423.4V778.8h178.1V957h0.1z m356.2 0H779.7V778.8h178.1V957z" fill="#dbdbdb" p-id="47944"></path></svg>