<?xml version="1.0" standalone="no"?><!DOCTYPE svg PUBLIC "-//W3C//DTD SVG 1.1//EN" "http://www.w3.org/Graphics/SVG/1.1/DTD/svg11.dtd"><svg t="1731505372529" class="icon" viewBox="0 0 1024 1024" version="1.1" xmlns="http://www.w3.org/2000/svg" p-id="1529" xmlns:xlink="http://www.w3.org/1999/xlink" width="200" height="200"><path d="M1022.293333 521.058987a40.52992 40.52992 0 0 1-28.330666 48.810666l-874.154667 232.789334a41.792853 41.792853 0 0 1-30.378667-4.164267 42.919253 42.919253 0 0 1-18.432-24.405333L1.365333 512.19456a40.461653 40.461653 0 0 1 28.672-48.810667l873.813334-233.383253a53.282133 53.282133 0 0 1 10.24-1.184427 38.782293 38.782293 0 0 1 20.138666 5.352107 37.625173 37.625173 0 0 1 18.432 24.999253z m-126.293333-276.18304L43.690667 472.302933a39.1168 39.1168 0 0 0-27.648 47.612587l63.829333 239.274667a38.034773 38.034773 0 0 0 17.749333 23.825066 40.523093 40.523093 0 0 0 19.797334 5.358934 61.576533 61.576533 0 0 0 10.24-1.194667l852.309333-227.437227a38.331733 38.331733 0 0 0 27.648-47.616l-63.829333-239.875413a39.632213 39.632213 0 0 0-47.786667-27.374933z m-88.405333 303.629653l-20.821334 5.628587-9.216-33.972907-78.165333 20.96128-5.12-19.22048 78.165333-20.96128-5.461333-20.118187-55.978667 15.018667-9.557333-17.353387a160.877227 160.877227 0 0 0 11.264-39.936l-29.696 8.024747-5.12-18.551467 37.888-10.120533c0.341333-6.857387 1.024-13.93664 1.365333-21.241173l21.504-0.75776-0.682666 16.069973 84.309333-22.5792 4.778667 18.551467-91.477334 24.49408a270.557867 270.557867 0 0 1-8.192 38.64576l34.474667-9.284267-6.485333-24.576 21.162666-5.632 6.485334 24.576 48.128-12.936533 5.12 18.998613-48.128 12.936533 5.461333 20.114774 64.853333-17.425067 5.12 19.22048-64.853333 17.42848z m-132.778667-92.34432q18.944 74.73152 10.24 124.928l-21.845333-11.134293c4.778667-28.1088 1.365333-64.126293-9.898667-108.055894l-18.432-68.840106 82.261333-22.039894a119.579307 119.579307 0 0 0-14.336-13.114026l22.528-10.369707c4.437333 4.22912 9.557333 9.94304 15.701334 17.138347l79.189333-21.261654 5.802667 20.7872-164.181334 43.89888z m-162.133333 37.440853l-2.730667-3.84q-1.024 87.51104-57.002667 150.101334l-17.749333-14.7456c38.229333-43.12064 57.344-95.443627 56.661333-156.955307a126.764373 126.764373 0 0 0-47.445333-32.699733l14.677333-15.957334c22.528 8.11008 45.738667 28.8256 70.314667 62.160214q52.736 69.9392 112.64 89.197226l-8.533333 20.360534q-61.44-17.496747-120.832-97.621334z m-94.890667 126.498134l-9.898667 23.2448c-43.008-17.2032-76.458667-40.277333-100.010666-69.259947l-1.024 0.238933 26.965333 100.11648-21.504 5.768534-26.965333-100.13696-0.682667 0.242346q-9.216 60.65152-54.272 110.81728l-17.749333-16.5888q43.008-40.9088 55.296-89.736533l-69.290667 18.500267-5.461333-20.558507 86.698666-23.237973-9.216-34.645334-73.386666 19.643734-5.461334-20.56192 73.386667-19.643734-7.850667-28.832426 21.504-5.748054 7.850667 28.832427 74.752-20.063573 5.802667 20.56192-75.093334 20.063573 9.216 34.645333 86.698667-23.237973 5.802667 20.56192-69.290667 18.507093q32.768 33.163947 93.184 50.507094zM665.6 232.229547l-4.096 15.2576-12.970667-10.144427-16.384 0.587093 6.144-14.134613-6.144-14.677333 16.384 1.099093 12.970667-10.185387 4.096 15.81056 13.994667 8.454827z m-287.744 8.359253l-8.533333 14.134613-7.850667-14.11072-15.36-3.365546 10.581333-12.448427-0.341333-16.9472 14.677333 6.1952 14.677334-6.242987-1.706667 16.384 10.24 12.417707z m235.861333 44.26752a255.126187 255.126187 0 0 0-225.28 13.34272 258.389333 258.389333 0 0 0-76.117333 67.351893l-18.090667 4.549974a266.502827 266.502827 0 0 1 337.578667-90.35776z m-102.741333-103.799467l5.802667-15.264426 11.264 11.264 16.042666-0.023894-8.192 14.134614 4.778667 15.24736-16.725333-2.23232-13.653334 9.0624-1.706666-15.817387-12.970667-9.02144z m-252.586667 164.80256l-4.778666 15.827627-11.264-10.714453-16.042667 1.15712 6.485333-15.264427-5.802666-15.250773 16.725333 1.10592 12.288-10.1888 2.730667 15.817386 13.653333 8.454827z m60.416-167.89504a391.168 391.168 0 0 0-182.954666 234.195627l-12.970667 3.413333A402.52416 402.52416 0 0 1 313.002667 167.253333a412.19072 412.19072 0 0 1 202.752-54.555306 402.496853 402.496853 0 0 1 288.426666 121.023146l-13.653333 3.413334C665.6 114.14528 472.405333 89.586347 318.805333 177.964373z m44.373334 619.731627l5.461333-15.2576 11.605333 11.264 16.725334 0.546133-7.509334 14.1312 5.12 14.677334-16.384-2.218667-13.653333 9.045333-3.072-15.803733-12.970667-9.591467z m312.32-22.528l9.216-13.585067 7.168 13.550934 16.042666 3.3792-11.605333 12.458666 1.365333 16.930134-15.36-6.178134-14.336 6.2464 1.706667-16.418133-10.24-12.3904z m-260.778667-28.9792a254.102187 254.102187 0 0 0 224.938667-13.346133 245.418667 245.418667 0 0 0 76.458666-66.7648l18.090667-5.12a266.78272 266.78272 0 0 1-337.92 90.350933z m135.168 96.9728l-6.485333 15.2576-11.264-11.264-16.042667 0.034133 8.192-14.165333-4.778667-15.223467 16.725334 2.218667 13.653333-9.045333 1.706667 15.803733 12.970666 9.591467z m236.544-167.048533l4.778667-15.803734 11.264 10.717867 15.701333-1.160533-6.826667 14.711466 5.802667 15.803734-16.042667-1.672534-11.946666 10.752-3.413334-15.837866-12.970666-9.0112z m-76.8 176.981333a388.263253 388.263253 0 0 0 182.613333-234.1888l13.653334-3.413333a402.52416 402.52416 0 0 1-190.122667 248.32c-161.792 92.3648-362.154667 64.989867-491.178667-67.037867l13.653334-3.413333a392.901973 392.901973 0 0 0 471.381333 59.733333z" p-id="1530" fill="#13227a"></path></svg>