<?xml version="1.0" standalone="no"?><!DOCTYPE svg PUBLIC "-//W3C//DTD SVG 1.1//EN" "http://www.w3.org/Graphics/SVG/1.1/DTD/svg11.dtd"><svg t="1737552221280" class="icon" viewBox="0 0 1024 1024" version="1.1" xmlns="http://www.w3.org/2000/svg" p-id="3826" xmlns:xlink="http://www.w3.org/1999/xlink" width="200" height="200"><path d="M512 18.253119L94.003565 259.194296 512 500.135472l417.996435-240.941176L512 18.253119zM73.925134 775.757576l423.47237 244.5918V523.864528L73.925134 277.447415v498.310161z m449.026738-251.893048v496.484848l74.837789-43.807487c-80.313725-94.916221-71.187166-237.290553 23.729056-317.604278s237.290553-71.187166 317.604278 23.729056c3.650624 3.650624 5.475936 7.301248 9.126559 10.951871V279.272727L522.951872 523.864528z" fill="#E76262" p-id="3827"></path><path d="M926.345811 783.058824l-25.554367-1.825312c-3.650624 0-5.475936-3.650624-7.301248-5.475936-1.825312-5.475936-3.650624-12.777184-7.301248-18.25312-1.825312-3.650624-1.825312-7.301248 0-9.126559l16.427808-18.25312c1.825312-3.650624 1.825312-7.301248 0-10.951871-10.951872-16.427807-25.554367-29.204991-40.156863-40.156863-3.650624-1.825312-7.301248-1.825312-10.951872 0l-18.253119 16.427807c-3.650624 1.825312-7.301248 1.825312-9.12656 0-5.475936-1.825312-12.777184-5.475936-18.253119-7.301248-3.650624-1.825312-5.475936-3.650624-5.475936-7.301247l-1.825312-23.729056c0-3.650624-3.650624-7.301248-7.301248-7.301247-9.12656-1.825312-20.078431-1.825312-29.204991-1.825312s-18.253119 0-29.204991 1.825312c-3.650624 0-7.301248 3.650624-7.301248 7.301247l-1.825312 23.729056c0 3.650624-1.825312 7.301248-5.475935 7.301247l-18.25312 7.301248c-3.650624 1.825312-7.301248 1.825312-9.12656 0l-20.078431-14.602495c-3.650624-1.825312-7.301248-1.825312-10.951872 0-16.427807 10.951872-29.204991 25.554367-40.156862 41.982174-3.650624 3.650624-3.650624 7.301248 0 10.951872l16.427807 18.253119c1.825312 3.650624 1.825312 7.301248 0 9.12656-3.650624 5.475936-5.475936 10.951872-7.301248 18.25312-1.825312 3.650624-3.650624 5.475936-7.301247 5.475935h-27.37968c-3.650624 0-7.301248 3.650624-7.301247 7.301248-3.650624 18.253119-3.650624 38.331551 0 56.58467 0 3.650624 3.650624 7.301248 7.301247 7.301248l23.729056 1.825312c3.650624 0 5.475936 3.650624 7.301247 5.475936 1.825312 5.475936 5.475936 12.777184 7.301248 18.253119 1.825312 3.650624 1.825312 7.301248 0 9.12656l-16.427807 18.25312c-1.825312 1.825312-1.825312 5.475936 0 7.301247 10.951872 16.427807 25.554367 29.204991 40.156862 40.156863 3.650624 1.825312 7.301248 1.825312 10.951872 0l18.25312-16.427807c3.650624-1.825312 7.301248-1.825312 9.126559 0l18.25312 7.301247c3.650624 1.825312 5.475936 3.650624 5.475936 7.301248l1.825311 23.729055c0 3.650624 3.650624 7.301248 7.301248 7.301248 9.12656 1.825312 18.253119 1.825312 29.204991 1.825312 9.12656 0 20.078431 0 29.204991-1.825312 3.650624 0 7.301248-3.650624 7.301248-7.301248l1.825312-23.729055c0-3.650624 3.650624-5.475936 5.475936-7.301248 5.475936-1.825312 12.777184-3.650624 18.253119-7.301247 3.650624-1.825312 7.301248-1.825312 9.12656 0l18.25312 16.427807c3.650624 1.825312 7.301248 1.825312 10.951871 0 16.427807-10.951872 29.204991-25.554367 40.156863-40.156863 1.825312-3.650624 1.825312-7.301248 0-10.951871l-16.427808-18.25312c-1.825312-3.650624-1.825312-7.301248 0-9.126559 3.650624-5.475936 5.475936-10.951872 7.301248-18.25312 1.825312-3.650624 3.650624-5.475936 7.301248-5.475936l25.554367-1.825312c3.650624 0 7.301248-3.650624 7.301248-7.301247 3.650624-18.253119 3.650624-38.331551 0-56.584671 5.475936-1.825312 1.825312-5.475936-1.825312-5.475935z m-166.103387 124.121212c-49.283422 0-87.614973-38.331551-87.614973-87.614974s38.331551-87.614973 87.614973-87.614973c49.283422 0 87.614973 38.331551 87.614974 87.614973s-38.331551 87.614973-87.614974 87.614974z" fill="#E76262" p-id="3828"></path></svg>