<?xml version="1.0" standalone="no"?><!DOCTYPE svg PUBLIC "-//W3C//DTD SVG 1.1//EN" "http://www.w3.org/Graphics/SVG/1.1/DTD/svg11.dtd"><svg t="1737552448660" class="icon" viewBox="0 0 1024 1024" version="1.1" xmlns="http://www.w3.org/2000/svg" p-id="2136" xmlns:xlink="http://www.w3.org/1999/xlink" width="200" height="200"><path d="M142.222222 540.444444V113.777778c0-45.511111 39.822222-85.333333 85.333334-85.333334h568.888888c45.511111 0 85.333333 39.822222 85.333334 85.333334v426.666666h-739.555556z" fill="#FFA1B6" p-id="2137"></path><path d="M796.444444 56.888889c34.133333 0 56.888889 22.755556 56.888889 56.888889v398.222222H170.666667V113.777778c0-34.133333 22.755556-56.888889 56.888889-56.888889h568.888888m0-56.888889H227.555556C164.977778 0 113.777778 51.2 113.777778 113.777778v455.111111h796.444444V113.777778c0-62.577778-51.2-113.777778-113.777778-113.777778z" fill="#FF5178" p-id="2138"></path><path d="M0 512v341.333333c0 96.711111 73.955556 170.666667 170.666667 170.666667h682.666666c96.711111 0 170.666667-73.955556 170.666667-170.666667V512H0zM256 227.555556h512c17.066667 0 28.444444-11.377778 28.444444-28.444445s-11.377778-28.444444-28.444444-28.444444h-512c-17.066667 0-28.444444 11.377778-28.444444 28.444444s11.377778 28.444444 28.444444 28.444445zM256 398.222222h512c17.066667 0 28.444444-11.377778 28.444444-28.444444s-11.377778-28.444444-28.444444-28.444445h-512c-17.066667 0-28.444444 11.377778-28.444444 28.444445s11.377778 28.444444 28.444444 28.444444z" fill="#FF5178" p-id="2139"></path></svg>