<svg t="1745078707740" class="icon" viewBox="0 0 1024 1024" version="1.1" xmlns="http://www.w3.org/2000/svg" p-id="29346" width="200" height="200"><path d="M711.000555 80.168795l176.257635 176.257635-176.257635 176.257634-176.257634-176.257634 176.257634-176.257635m-398.00111 90.971683a28.428651 28.428651 0 0 1 28.428651 28.42865v170.571905a28.428651 28.428651 0 0 1-28.428651 28.428651h-170.571905a28.428651 28.428651 0 0 1-28.42865-28.428651v-170.571905a28.428651 28.428651 0 0 1 28.42865-28.42865h170.571905m511.715713 454.858412a28.428651 28.428651 0 0 1 28.428651 28.42865v227.429206a28.428651 28.428651 0 0 1-28.428651 28.428651h-227.429206a28.428651 28.428651 0 0 1-28.428651-28.428651v-227.429206a28.428651 28.428651 0 0 1 28.428651-28.42865h227.429206m-511.715713 0a28.428651 28.428651 0 0 1 28.428651 28.42865v227.429206a28.428651 28.428651 0 0 1-28.428651 28.428651h-170.571905a28.428651 28.428651 0 0 1-28.42865-28.428651v-227.429206a28.428651 28.428651 0 0 1 28.42865-28.42865h170.571905m398.00111-625.430317L455.142699 256.42643l255.857856 255.857857 255.857857-255.857857-255.857857-255.857857z m-398.00111 113.714603h-170.571905A85.285952 85.285952 0 0 0 57.141588 199.569128v170.571905a85.285952 85.285952 0 0 0 85.285952 85.285952h170.571905A85.285952 85.285952 0 0 0 398.285397 370.141033v-170.571905a85.285952 85.285952 0 0 0-85.285952-85.285952z m511.715713 454.858412h-227.429206a85.285952 85.285952 0 0 0-85.285952 85.285952v227.429206a85.285952 85.285952 0 0 0 85.285952 85.285953h227.429206a85.285952 85.285952 0 0 0 85.285952-85.285953v-227.429206a85.285952 85.285952 0 0 0-85.285952-85.285952z m-511.715713 0h-170.571905a85.285952 85.285952 0 0 0-85.285952 85.285952v227.429206a85.285952 85.285952 0 0 0 85.285952 85.285953h170.571905a85.285952 85.285952 0 0 0 85.285952-85.285953v-227.429206a85.285952 85.285952 0 0 0-85.285952-85.285952z" fill="#e6e6e6" p-id="29347"></path></svg>