<svg t="1745078275691" class="icon" viewBox="0 0 1024 1024" version="1.1" xmlns="http://www.w3.org/2000/svg" p-id="15378" width="200" height="200"><path d="M984.617748 443.076923a39.384615 39.384615 0 0 1-23.63077-7.876923L512.002363 98.461538 63.017748 435.2a39.384615 39.384615 0 0 1-47.261539-63.015385L512.002363 0l496.246154 372.184615a39.384615 39.384615 0 0 1 7.876923 55.138462 39.384615 39.384615 0 0 1-31.507692 15.753846zM992.100825 885.76l-27.569231-16.147692a138.633846 138.633846 0 0 0 0-85.07077l27.569231-16.147692a18.116923 18.116923 0 0 0 6.695384-24.418461l-18.116923-30.72a17.723077 17.723077 0 0 0-24.418461-6.695385l-27.175385 15.753846a147.692308 147.692308 0 0 0-74.043077-42.535384v-31.901539a18.116923 18.116923 0 0 0-18.116923-17.723077h-35.84a17.723077 17.723077 0 0 0-17.723077 17.723077v31.901539A147.692308 147.692308 0 0 0 708.92544 722.313846l-27.175385-15.753846a17.723077 17.723077 0 0 0-24.418461 6.695385l-18.116923 30.72a18.116923 18.116923 0 0 0 6.695384 24.418461l27.569231 16.147692a138.633846 138.633846 0 0 0 0 85.07077l-27.569231 16.147692a18.116923 18.116923 0 0 0-6.695384 24.418462l18.116923 30.72a17.723077 17.723077 0 0 0 24.418461 6.695384l27.175385-15.753846a147.692308 147.692308 0 0 0 74.043077 42.535385v31.901538a17.723077 17.723077 0 0 0 17.723077 17.723077h35.84a18.116923 18.116923 0 0 0 18.116923-17.723077v-31.901538a147.692308 147.692308 0 0 0 74.043077-42.535385l27.175384 15.753846a17.723077 17.723077 0 0 0 24.418462-6.695384l18.116923-30.72a18.116923 18.116923 0 0 0-6.301538-24.418462z m-172.898462 30.72A89.403077 89.403077 0 1 1 908.60544 827.076923a89.009231 89.009231 0 0 1-89.403077 89.403077zM577.380825 990.916923H114.611594V520.270769a39.384615 39.384615 0 0 1 78.769231 0v393.846154h384a39.384615 39.384615 0 0 1 0 78.769231z" p-id="15379"></path><path d="M420.630055 584.073846h-118.153846a59.076923 59.076923 0 0 1-59.076923-59.076923v-118.153846a59.076923 59.076923 0 0 1 59.076923-59.076923h118.153846a59.076923 59.076923 0 0 1 59.076923 59.076923v118.153846a59.076923 59.076923 0 0 1-59.076923 59.076923z m-98.461538-78.769231h78.769231v-78.76923h-78.769231zM721.528517 584.073846h-118.153846a59.076923 59.076923 0 0 1-59.076923-59.076923v-118.153846a59.076923 59.076923 0 0 1 59.076923-59.076923h118.153846a59.076923 59.076923 0 0 1 59.076923 59.076923v118.153846a59.076923 59.076923 0 0 1-59.076923 59.076923z m-98.461539-78.769231h78.769231v-78.76923h-78.769231zM420.630055 868.824615h-118.153846a59.076923 59.076923 0 0 1-59.076923-59.076923v-118.153846a59.076923 59.076923 0 0 1 59.076923-59.076923h118.153846a59.076923 59.076923 0 0 1 59.076923 59.076923v118.153846a59.076923 59.076923 0 0 1-59.076923 59.076923z m-98.461538-78.76923h78.769231v-78.769231h-78.769231z" p-id="15380"></path></svg>