<?xml version="1.0" standalone="no"?><!DOCTYPE svg PUBLIC "-//W3C//DTD SVG 1.1//EN" "http://www.w3.org/Graphics/SVG/1.1/DTD/svg11.dtd"><svg t="1737552311052" class="icon" viewBox="0 0 1024 1024" version="1.1" xmlns="http://www.w3.org/2000/svg" p-id="4733" xmlns:xlink="http://www.w3.org/1999/xlink" width="200" height="200"><path d="M333.9 621.3h-66.1c-5.6 0-10.9 2.2-14.8 6.2-3.9 3.9-6 9.1-5.9 14.5v65.6c0 11.5 9.3 20.8 20.7 20.8h66.1c11.4 0 20.7-9.3 20.7-20.8V642c0-11.4-9.3-20.7-20.7-20.7zM333.9 779.8h-66.1c-5.6 0-10.8 2.2-14.8 6.2-3.9 4-6 9.2-6 14.7v65.6c0 11.5 9.3 20.8 20.7 20.8h66.1c11.4 0 20.7-9.3 20.7-20.8v-65.7c0.1-11.4-9.2-20.8-20.6-20.8z" fill="#FF7676" p-id="4734"></path><path d="M761.9 378.4v108.1c0 15.3 12.7 26.5 30.2 26.5 8.1 0 15.5-2.5 21-6.9 5.9-4.8 9.2-11.8 9.2-19.6v-65.1l31.4 22.2c12.6 8.9 29 5 39.1-9.2 5.3-7.4 7.5-15.8 6.2-23.6-1.1-6.6-4.7-12.2-10.3-16.2L524 135.6c-29-21.6-54.9-21.6-83.9 0l-364.7 259c-6.3 4.5-10.1 11.2-10.6 18.8-0.5 7 1.8 14.5 6.5 21.1 10.1 14.2 26.5 18 39.1 9.1l31.6-22.5v439.7c0 15.3 12.7 26.5 30.1 26.5 9.2 0 17.3-3.1 22.9-8.7 4.8-4.7 7.3-10.9 7.3-17.8V378.1L482 179.4l279.9 199z" fill="#FF7676" p-id="4735"></path><path d="M333.9 462.7h-66.1c-5.6 0-10.8 2.2-14.8 6.2-3.9 3.9-6 9.1-5.9 14.5v65.8c0 11.4 9.3 20.7 20.7 20.7h66.1c11.4 0 20.7-9.3 20.7-20.7v-65.9c0-11.4-9.3-20.6-20.7-20.6zM493.1 779.8H427c-5.6 0-10.8 2.2-14.8 6.2-3.9 4-6 9.2-6 14.7v65.6c0 11.5 9.3 20.8 20.7 20.8H493c11.4 0 20.7-9.3 20.7-20.8v-65.7c0.2-11.4-9.1-20.8-20.6-20.8zM424.8 569.8h66.1c11.4 0 20.7-9.3 20.7-20.7v-65.9c0-11.4-9.3-20.7-20.7-20.7h-66.1c-5.6 0-10.8 2.2-14.8 6.2-3.9 3.9-6 9.1-5.9 14.5V549c-0.1 11.6 9.2 20.8 20.7 20.8zM493.1 621.3H427c-5.6 0-10.9 2.2-14.8 6.2-3.9 3.9-6 9.1-5.9 14.5v65.6c0 11.5 9.3 20.8 20.7 20.8h66.1c11.4 0 20.7-9.3 20.7-20.8V642c0.1-11.4-9.2-20.7-20.7-20.7zM760.2 642.2c-41.7 0-75.7 33.8-75.7 75.4 0 41.6 34 75.4 75.7 75.4s75.7-33.8 75.7-75.4c0-41.6-34-75.4-75.7-75.4z m32.2 75.3c0 17.6-14.5 32-32.2 32-17.8 0-32.2-14.4-32.2-32s14.4-32 32.2-32c17.7 0 32.2 14.4 32.2 32z" fill="#FF7676" p-id="4736"></path><path d="M959.1 708.2c-0.4-5.1-0.9-10.4-1.7-16-1.1-7.9-1.6-11.8-2.2-13.9-3.2-15.4-13.9-25.8-26.7-25.2H927c-21 0-38.2-17-38.2-37.9 0-0.6 0-1.1 0.1-1.7 0.2-2.3 0.7-4.9 1.6-7.8 0.5-1.5 1.4-4.2 1.8-5.1 6.2-13.7 1.3-30.6-11.3-39.3l-48.6-27-1.1-0.5c-12.5-5.4-29.2-2-38.5 7.6-9.8 10.1-23.3 17.9-30.7 17.9-7.5 0-21.1-8-30.9-18.3-9.3-9.8-26.2-13.2-38.5-7.9l-50.4 27.4-1.1 0.7c-12.6 8.7-17.4 25.8-11.2 39.9 1.1 2.3 3.3 9.3 3.3 14.1 0 20.9-17.1 37.9-38.1 37.9h-2c-12.9 0-23.5 10.4-26.4 26-0.4 2.1-1.4 7.6-2.1 13.3-1.3 9.7-2 18.3-2 25.3 0 2.9 0.1 6 0.3 9.3 0.4 5.2 1 10.8 1.7 16.5 0.4 2.9 0.8 5.7 1.3 8.4l0.7 4.3c3.1 15.8 13.5 26.1 26.5 26.1h2c21 0 38.2 17 38.2 37.9 0 4.9-2 11.6-3.2 14.1-6.3 14-1.5 31.1 11 39.8l47.7 26.6 1.1 0.5c13 5.6 29.6 2 38.9-8.1 9.4-10.2 24.1-19.1 31.4-19.1 7.6 0 21.8 8.7 31.6 19.5 6.2 6.9 15.8 11 25.6 11 4.7 0 9.1-0.9 13.1-2.7l49.4-27 1.1-0.7c12.6-8.7 17.4-25.8 11.2-39.8-1.2-2.5-3.3-9.3-3.3-14.1 0-20.9 17.1-37.9 38.2-37.9h1.9c13.1 0 23.5-10.2 26.5-26 2-10.2 4.1-25.7 4.1-38.7-0.2-2.8-0.3-6-0.6-9.4zM848.8 842.6l-30.3 16.6c-3.9-3.7-8.4-7.5-12.9-10.8-15.7-11.6-31.1-17.5-45.6-17.5-14.4 0-29.6 5.8-45.3 17.2-4.4 3.2-8.9 6.9-12.8 10.6l-28.8-16c2.3-7.6 3.6-15.3 3.6-22.3 0-20.9-8-40.8-22.6-56-12.4-12.9-28.7-21.4-46.1-24.2-1.3-8.8-2-16.4-2-22.3 0-5.9 0.7-13.4 2-22.3 17.5-2.8 33.8-11.3 46.1-24.2 14.5-15.2 22.6-35.1 22.6-56 0-7-1.2-14.6-3.5-22.2l31.5-17.1c3.9 3.6 8.4 7.2 12.9 10.4 15.5 11 30.5 16.5 44.5 16.5 13.9 0 28.7-5.4 44.6-16.5 4.5-3.2 8.3-6.2 12.3-9.8l30 16.6c-2.3 7.6-3.6 15.3-3.6 22.3 0 20.9 8 40.8 22.6 56 12.4 12.9 28.6 21.4 46.1 24.2 1.3 8.6 2 16.4 2 22.3 0 5.9-0.7 13.4-2 22.3-17.5 2.8-33.8 11.3-46.1 24.2-14.5 15.2-22.6 35.1-22.6 56-0.1 6.8 1.1 14.4 3.4 22z" fill="#FF7676" p-id="4737"></path></svg>