<svg t="1745078881997" class="icon" viewBox="0 0 1024 1024" version="1.1" xmlns="http://www.w3.org/2000/svg" p-id="35697" width="200" height="200"><path d="M919.3 63.9h-816c-22 0-40 18-40 40v560c0 22 18 40 40 40h298v193.7h-130c-16.6 0-30 13.4-30 30s13.4 30 30 30h480c16.6 0 30-13.4 30-30s-13.4-30-30-30h-130V703.9h298c22 0 40-18 40-40v-560c0-22-18-40-40-40z m-20 60v338.6h-776V123.9h776z m-338 773.7h-99.9V703.9h99.9v193.7z m-438-253.7V522.5h776v121.4h-776z" fill="#e6e6e6" p-id="35698"></path></svg>