<?xml version="1.0" standalone="no"?><!DOCTYPE svg PUBLIC "-//W3C//DTD SVG 1.1//EN" "http://www.w3.org/Graphics/SVG/1.1/DTD/svg11.dtd"><svg t="1745079087788" class="icon" viewBox="0 0 1204 1024" version="1.1" xmlns="http://www.w3.org/2000/svg" p-id="40406" xmlns:xlink="http://www.w3.org/1999/xlink" width="235.15625" height="200"><path d="M892.03297 200.536878c-47.314476 0-85.744311 37.285373-85.74431 83.711385 0 19.666679 7.213123 37.541371 18.763156 51.877265l-93.469431 100.080206a86.030426 86.030426 0 0 0-44.378026-12.423438c-22.829009 0-43.51968 8.869582-59.120507 23.325946l-89.810163-73.049816a79.90153 79.90153 0 0 0 10.420629-39.197829c0-46.170013-38.444894-83.711384-85.74431-83.711385-47.314476 0-85.744311 37.285373-85.744311 83.711385a81.317049 81.317049 0 0 0 15.2093 47.314475l-81.42246 83.967383a86.994184 86.994184 0 0 0-47.946942-14.200366c-47.299417 0-85.729252 37.285373-85.729252 83.711384 0 46.170013 38.309365 83.726443 85.729252 83.726443 47.314476 0 85.744311-37.300432 85.744311-83.726443a81.030934 81.030934 0 0 0-17.242226-49.72387l81.061051-83.470445a86.22619 86.22619 0 0 0 50.476805 16.233293c22.452541 0 42.480629-8.628642 57.976044-22.452541l90.292042 73.320873a80.594231 80.594231 0 0 0-9.773104 38.053367c0 46.170013 38.429835 83.711384 85.74431 83.711384s85.744311-37.270314 85.744311-83.711384c0-20.178675-7.740178-38.444894-19.922677-52.901258l92.972493-99.568209c12.950493 8.131705 28.807318 13.070963 45.673076 13.070962 47.314476 0 85.729252-37.300432 85.729252-83.711384 0.391527-46.426012-38.188896-83.967383-85.488313-83.967383z m0 0" fill="#e6e6e6" p-id="40407"></path><path d="M1065.117815 0H139.308152C82.491629 0 36.577613 55.175124 36.577613 111.750708V708.663025a103.06183 103.06183 0 0 0 102.986537 103.001595H443.479092v146.626687h-248.468761a32.858111 32.858111 0 1 0 0 65.701164h814.450482a32.87317 32.87317 0 0 0 0-65.701164H761.217932V811.66462h303.914942a103.076889 103.076889 0 0 0 103.001596-103.001595V111.750708C1168.119411 55.175124 1121.949397 0 1065.117815 0zM695.50171 958.155778h-186.426865v-146.626686h186.441923v146.626686z m406.660539-249.372284a37.134786 37.134786 0 0 1-37.164903 37.164903H139.308152a37.149844 37.149844 0 0 1-37.164903-37.164903V111.991647A37.119727 37.119727 0 0 1 139.308152 74.841803h925.824722A37.119727 37.119727 0 0 1 1102.297777 111.991647v596.791847h-0.135528z m0 0" fill="#e6e6e6" p-id="40408"></path></svg>