<?xml version="1.0" standalone="no"?><!DOCTYPE svg PUBLIC "-//W3C//DTD SVG 1.1//EN" "http://www.w3.org/Graphics/SVG/1.1/DTD/svg11.dtd"><svg t="1737553759858" class="icon" viewBox="0 0 1024 1024" version="1.1" xmlns="http://www.w3.org/2000/svg" p-id="19696" xmlns:xlink="http://www.w3.org/1999/xlink" width="200" height="200"><path d="M806.656 0c52.544 0 98.88 37.12 103.872 88.128l0.448 9.088v260.16c-3.84-4.48-7.552-5.248-11.968-9.152-42.112-36.48-100.288-48.256-161.92-48.256A227.2 227.2 0 0 0 575.36 366.208a227.584 227.584 0 0 0-12.224 307.968c-32.64 21.184-63.104 46.336-84.864 78.848-62.912 93.952-66.432 187.392-66.56 258.304l-0.064 12.288H104.32c-52.736 0-99.2-43.648-103.936-95.488L0 919.424V97.28C0 44.8 43.392 4.672 95.104 0.384L104.32 0h702.336z m-41.92 385.92c90.752 0 162.048 72.832 162.048 165.504 0 66.24-32.384 125.76-90.752 152.32C970.944 736 1024 897.792 1024 1016.96v6.592H512v-6.592c0-119.168 41.216-280.64 181.504-313.344-51.84-33.088-90.752-86.016-90.752-152.256 0-92.672 71.296-165.504 161.984-165.504zM320 383.616H192a64 64 0 0 0-7.488 127.552L192 511.616h128a64 64 0 1 0 0-128z m192-256H192a64 64 0 0 0-7.488 127.552L192 255.616h320a64 64 0 1 0 0-128z" fill="#d4237a" p-id="19697"></path></svg>