<?xml version="1.0" standalone="no"?><!DOCTYPE svg PUBLIC "-//W3C//DTD SVG 1.1//EN" "http://www.w3.org/Graphics/SVG/1.1/DTD/svg11.dtd"><svg t="1737552424765" class="icon" viewBox="0 0 1024 1024" version="1.1" xmlns="http://www.w3.org/2000/svg" p-id="4739" xmlns:xlink="http://www.w3.org/1999/xlink" width="200" height="200"><path d="M563.2 474.819048h92.952381v76.647619h-92.952381v-76.647619z m0 134.857142h92.952381V688.761905h-92.952381v-79.085715z" fill="#2D8CF0" p-id="4740"></path><path d="M512 0.152381C229.333333 0.152381 0.152381 229.333333 0.152381 512S229.333333 1023.847619 512 1023.847619 1023.847619 794.666667 1023.847619 512 794.666667 0.152381 512 0.152381z m-106.971429 546.742857v216.076191h-60.495238V570.057143c-18.590476 39.466667-37.180952 76.647619-58.057143 104.533333-7.009524-18.590476-20.87619-44.190476-30.171428-60.495238 30.171429-32.609524 60.342857-90.666667 79.085714-144.152381h-72.07619v-65.066667h81.371428V344.380952c-20.87619 4.72381-41.904762 7.009524-60.495238 9.295238 0-13.866667-9.295238-34.895238-16.304762-48.761904 62.780952-9.295238 130.133333-25.6 174.32381-44.190476l34.895238 53.485714c-23.314286 7.009524-46.47619 14.019048-72.076191 20.87619v74.361905H472.380952v60.342857h-67.352381v7.009524c14.019048 11.580952 65.066667 72.07619 74.361905 85.942857l-37.180952 51.2c-9.295238-18.285714-23.161905-43.885714-37.180953-67.047619z m362.666667 199.771429h-318.47619v-60.342857h51.2V284.190476h220.8v401.980953h46.47619V746.666667z" fill="#2D8CF0" p-id="4741"></path><path d="M563.2 344.685714h92.952381v72.076191h-92.952381z" fill="#2D8CF0" p-id="4742"></path></svg>