<?xml version="1.0" standalone="no"?><!DOCTYPE svg PUBLIC "-//W3C//DTD SVG 1.1//EN" "http://www.w3.org/Graphics/SVG/1.1/DTD/svg11.dtd"><svg t="1737552350956" class="icon" viewBox="0 0 1024 1024" version="1.1" xmlns="http://www.w3.org/2000/svg" p-id="5701" xmlns:xlink="http://www.w3.org/1999/xlink" width="200" height="200"><path d="M289.588453 211.850988c12.789748 11.19103 28.776933 17.585904 44.764119 17.585904h330.934735c23.980778 0 44.764119-12.789748 55.955149-31.974371C799.579664 63.170165 804.375819 16.807328 788.388634 4.01758c-31.974371-27.178215-140.68723 92.725675-298.960365 84.732082-54.35643-3.197437-100.719267-19.184622-139.088512-39.967964-31.974371-15.987185-70.343615-4.796156-87.929519 25.579497-6.394874 11.19103-11.19103 22.382059-12.789748 36.770526-3.197437 36.770526 11.19103 75.139771 39.967963 100.719267z m689.047686 450.838625l-118.305171-249.40009c-35.171808-73.541052-113.509015-121.502608-180.655194-121.502608h-335.730891c-67.146178 0-145.483386 49.560274-180.655193 121.502608L44.984519 662.689613C-36.550126 833.752495-7.773193 1024 142.506349 1024h740.206678c147.082105 0 177.457757-190.247505 95.923112-361.310387zM705.25527 493.225449l-111.910296 132.693638c-7.993593 9.592311-1.598719 22.382059 11.191029 22.382059h59.152586c11.19103 0 17.585904 11.19103 12.789748 19.184622L655.694996 709.05245c-3.197437 4.796156-7.993593 7.993593-12.789748 7.993593H575.75907c-7.993593 0-14.388467 6.394874-14.388467 14.388467s6.394874 14.388467 14.388467 14.388466h83.133363c9.592311 0 17.585904 9.592311 12.789748 19.184623l-15.987185 36.770526c-1.598719 4.796156-7.993593 7.993593-12.789748 7.993592H575.75907c-7.993593 0-14.388467 6.394874-14.388467 14.388467v59.152586c0 7.993593-6.394874 14.388467-14.388467 14.388466h-62.350022c-7.993593 0-14.388467-6.394874-14.388467-14.388466v-59.152586c0-7.993593-6.394874-14.388467-14.388467-14.388467h-86.3308c-7.993593 0-14.388467-6.394874-14.388467-14.388466v-39.967964c0-7.993593 6.394874-14.388467 14.388467-14.388466h86.3308c7.993593 0 14.388467-6.394874 14.388467-14.388467s-6.394874-14.388467-14.388467-14.388467h-86.3308c-7.993593 0-14.388467-6.394874-14.388467-14.388467v-39.967963c0-7.993593 6.394874-14.388467 14.388467-14.388466h57.553867c12.789748 0 19.184622-14.388467 11.191029-22.38206l-115.107734-131.094919c-7.993593-9.592311-1.598719-22.382059 11.19103-22.382059h63.948741c4.796156 0 7.993593 1.598719 11.19103 4.796155l99.120549 107.114141c6.394874 6.394874 15.987185 6.394874 22.382059 0l86.3308-107.114141c3.197437-3.197437 6.394874-4.796156 11.19103-4.796155h65.54746c12.789748 3.197437 19.184622 17.585904 11.191029 25.579496z" fill="#FF7B7B" p-id="5702"></path></svg>