<svg t="1745077875850" class="icon" viewBox="0 0 1024 1024" version="1.1" xmlns="http://www.w3.org/2000/svg" p-id="9435" width="200" height="200"><path d="M512 320c-211.2 0-384 243.2-384 544 0 38.4 6.4 108.8 12.8 134.4l6.4 12.8h736l6.4-12.8c6.4-25.6 12.8-96 12.8-134.4C896 563.2 723.2 320 512 320z m339.2 646.4H172.8c-6.4-25.6-6.4-64-6.4-108.8C166.4 588.8 320 364.8 512 364.8c192 0 345.6 224 345.6 499.2 0 38.4-6.4 83.2-6.4 102.4z m-256-684.8L716.8 51.2H531.2l-25.6 32-64-70.4h-128l102.4 268.8h179.2zM422.4 57.6l83.2 89.6 44.8-51.2H640L569.6 243.2H448L377.6 57.6h44.8z m179.2 627.2c-19.2-12.8-44.8-25.6-76.8-38.4V524.8c12.8 0 25.6 6.4 38.4 12.8 12.8 6.4 19.2 19.2 32 32l19.2-12.8-38.4-38.4c-12.8-6.4-32-12.8-51.2-12.8v-38.4h-19.2v38.4c-32 0-57.6 12.8-76.8 25.6-12.8 12.8-25.6 32-25.6 57.6 0 19.2 6.4 38.4 25.6 51.2 12.8 12.8 38.4 25.6 76.8 32v140.8c-19.2 0-32-6.4-44.8-19.2-12.8-6.4-25.6-19.2-32-38.4l-19.2 19.2c12.8 19.2 25.6 32 44.8 44.8 19.2 12.8 38.4 19.2 57.6 19.2v38.4h19.2v-38.4c32 0 57.6-12.8 76.8-25.6 19.2-12.8 25.6-38.4 25.6-64-6.4-25.6-12.8-44.8-32-64z m-96-38.4c-25.6-6.4-44.8-12.8-57.6-25.6-12.8-6.4-19.2-19.2-19.2-38.4s6.4-32 19.2-38.4c12.8-12.8 32-19.2 51.2-19.2v121.6h6.4z m76.8 147.2c-12.8 12.8-32 19.2-57.6 19.2v-134.4c25.6 6.4 44.8 19.2 57.6 25.6 12.8 12.8 19.2 25.6 19.2 38.4 0 25.6-6.4 38.4-19.2 51.2z" fill="" p-id="9436"></path></svg>