<?xml version="1.0" standalone="no"?><!DOCTYPE svg PUBLIC "-//W3C//DTD SVG 1.1//EN" "http://www.w3.org/Graphics/SVG/1.1/DTD/svg11.dtd"><svg t="1737552167260" class="icon" viewBox="0 0 1144 1024" version="1.1" xmlns="http://www.w3.org/2000/svg" p-id="7018" xmlns:xlink="http://www.w3.org/1999/xlink" width="223.4375" height="200"><path d="M383.746242 810.801569a110.69099 110.69099 0 0 1 76.502582 30.09543 95.763657 95.763657 0 0 1 23.11329 33.64669 107.741638 107.741638 0 0 1 0 81.859569 98.833391 98.833391 0 0 1-23.11329 33.64669 119.358474 119.358474 0 0 1-34.790317 22.631763 104.069995 104.069995 0 0 1-41.712265 8.607293 102.32446 102.32446 0 0 1-42.133601-8.607293 123.391261 123.391261 0 0 1-34.30879-22.631763 95.643275 95.643275 0 0 1-23.11329-33.64669 107.741638 107.741638 0 0 1 0-81.859569 101.120643 101.120643 0 0 1 23.11329-33.64669 113.459769 113.459769 0 0 1 34.30879-22.210427 109.667745 109.667745 0 0 1 42.133601-7.945193z m482.188972 2.227062a115.506259 115.506259 0 0 1 42.133602 7.945194 102.32446 102.32446 0 0 1 34.790316 22.210427 104.972858 104.972858 0 0 1 23.11329 33.64669 100.037208 100.037208 0 0 1 0 81.799377 105.634958 105.634958 0 0 1-23.11329 33.466118 110.991944 110.991944 0 0 1-34.790316 22.631763 107.320302 107.320302 0 0 1-42.133602 8.607293 102.32446 102.32446 0 0 1-41.712265-8.607293 114.362632 114.362632 0 0 1-34.30879-22.631763 106.959157 106.959157 0 0 1-23.11329-33.466118 100.037208 100.037208 0 0 1 0-81.799377 113.941296 113.941296 0 0 1 23.11329-33.64669 102.32446 102.32446 0 0 1 34.30879-22.210427 111.172517 111.172517 0 0 1 41.712265-7.945194z m194.898002-645.787727a120.381718 120.381718 0 0 1 50.43994 8.607293 59.167614 59.167614 0 0 1 25.581115 21.0668 45.323717 45.323717 0 0 1 6.921949 26.664551 92.152205 92.152205 0 0 1-4.032788 24.377298c-2.227062 6.861758-7.162712 20.886228-14.566188 42.133601s-15.709814 44.420854-24.919015 69.941779-18.358212 50.620513-27.146078 75.65991-15.709814 44.661617-20.163937 59.167614a128.387102 128.387102 0 0 1-38.341578 63.140211 91.369724 91.369724 0 0 1-56.75998 17.575731H349.136498l17.51554 102.324461h584.212479a45.684862 45.684862 0 0 1 55.616353 46.587724 68.437007 68.437007 0 0 1-10.954736 39.18425 48.814787 48.814787 0 0 1-43.517991 16.492295H344.261038a69.159297 69.159297 0 0 1-38.823104-10.112064 85.290447 85.290447 0 0 1-26.002451-26.60436 160.167876 160.167876 0 0 1-16.85344-36.114515 319.914416 319.914416 0 0 1-9.871301-36.114516c-0.662099-4.634696-2.889161-15.589433-6.019086-32.984591s-7.824812-39.184249-12.760462-65.307082-10.5334-55.435781-16.79325-87.5777-12.038172-64.644983-18.598975-97.208237q-22.210427-114.844159-49.777841-255.811151h-87.276746a46.888679 46.888679 0 0 1-28.951803-8.547102 80.956705 80.956705 0 0 1-19.261075-20.705656 72.229031 72.229031 0 0 1-10.292637-25.520924A115.987785 115.987785 0 0 1 0.029515 52.396745 49.115741 49.115741 0 0 1 15.73933 14.837649 58.86666 58.86666 0 0 1 57.872931 0.090888h117.071221a83.063386 83.063386 0 0 1 37.017378 6.801567 64.584792 64.584792 0 0 1 21.969664 17.154395 69.881587 69.881587 0 0 1 11.677026 21.548328 535.698646 535.698646 0 0 0 6.019086 19.381456 247.504813 247.504813 0 0 1 4.694887 25.520925l4.694887 33.405926c2.227062 13.663325 4.694887 28.169322 6.98214 43.337419h792.773805z" fill="#9771F8" p-id="7019"></path></svg>