<svg t="1745078573821" class="icon" viewBox="0 0 1024 1024" version="1.1" xmlns="http://www.w3.org/2000/svg" p-id="23656" width="200" height="200"><path d="M255.606154 882.215385m-74.830769 0a74.830769 74.830769 0 1 0 149.661538 0 74.830769 74.830769 0 1 0-149.661538 0Z" p-id="23657" fill="#e6e6e6"></path><path d="M953.895385 153.993846a39.384615 39.384615 0 0 0-31.507693-15.753846H270.966154L238.670769 28.356923A39.384615 39.384615 0 0 0 200.861538 0H39.384615a39.384615 39.384615 0 0 0 0 78.769231h131.938462l140.996923 476.947692-78.769231 172.898462a39.384615 39.384615 0 0 0 2.756923 39.384615 39.384615 39.384615 0 0 0 33.083077 18.116923h252.849231a39.384615 39.384615 0 1 0 0-78.769231H330.043077l50.018461-109.095384h319.409231v-78.769231h-315.076923L294.203077 217.009231h575.803077l-66.166154 224.492307 75.618462 22.055385 80.738461-275.692308a39.384615 39.384615 0 0 0-6.301538-33.870769z" p-id="23658" fill="#e6e6e6"></path><path d="M1013.366154 861.735385l-32.295385-18.51077a154.387692 154.387692 0 0 0 0-99.643077l32.295385-18.904615a20.48 20.48 0 0 0 7.876923-28.356923l-20.873846-36.627692a21.267692 21.267692 0 0 0-28.750769-7.483077l-31.901539 18.510769a175.261538 175.261538 0 0 0-86.646154-50.018462v-37.021538a21.267692 21.267692 0 0 0-21.267692-20.873846h-41.747692a20.873846 20.873846 0 0 0-20.873847 20.873846v37.021538A174.867692 174.867692 0 0 0 682.141538 669.538462l-31.901538-18.51077a21.267692 21.267692 0 0 0-28.750769 7.483077l-20.873846 36.627693a20.873846 20.873846 0 0 0 7.876923 28.356923l32.295384 18.904615a154.387692 154.387692 0 0 0 0 99.643077l-32.295384 18.510769a21.267692 21.267692 0 0 0-7.876923 28.750769l20.873846 36.233847a21.267692 21.267692 0 0 0 28.750769 7.876923l31.901538-18.51077a177.624615 177.624615 0 0 0 87.04 50.018462v37.021538a20.873846 20.873846 0 0 0 20.873847 20.873847h41.747692a21.267692 21.267692 0 0 0 21.267692-20.873847v-37.021538a178.412308 178.412308 0 0 0 86.646154-50.018462l31.901539 18.51077a21.267692 21.267692 0 0 0 28.750769-7.876923l20.873846-36.233847a20.873846 20.873846 0 0 0-7.876923-27.56923z m-202.436923 36.627692a105.156923 105.156923 0 1 1 104.763077-105.156923 105.156923 105.156923 0 0 1-104.763077 105.156923z" p-id="23659" fill="#e6e6e6"></path></svg>