<svg t="1745078479830" class="icon" viewBox="0 0 1024 1024" version="1.1" xmlns="http://www.w3.org/2000/svg" p-id="20584" width="200" height="200"><path d="M94 706c14.912 0 27 12.088 27 27v198c0 14.912-12.088 27-27 27s-27-12.088-27-27V733c0-14.912 12.088-27 27-27z m279-193c14.912 0 27 12.088 27 27v391c0 14.912-12.088 27-27 27s-27-12.088-27-27V540c0-14.912 12.088-27 27-27zM930 66c14.912 0 27 12.088 27 27v138c0 14.912-12.088 27-27 27s-27-12.088-27-27v-74.968L642.604 431.046c-13.871 14.65-36.451 16.657-52.676 4.772l-0.49-0.364-214.662-162.266-262.408 243.563c-10.82 10.043-27.672 9.52-37.85-1.096l-0.307-0.325c-10.043-10.82-9.52-27.672 1.096-37.851l0.325-0.307 271.012-251.547c14.076-13.065 35.424-14.266 50.866-2.939l0.466 0.348L612.005 384.82 862.752 120H792c-14.912 0-27-12.088-27-27s12.088-27 27-27h138z" fill="#ffffff" p-id="20585"></path><path d="M734.998 641C682.616 641 640 683.62 640 736.002S682.616 831 734.998 831C787.384 831 830 788.384 830 736.002 829.995 683.616 787.38 641 734.998 641z m-0.023 151.89c-31.416 0-56.975-25.545-56.975-56.945S703.559 679 734.975 679c31.417 0 56.976 25.545 56.976 56.945s-25.559 56.946-56.976 56.946z m210.766-22.239l-28.36-16.365c0.636-6.242 0.956-12.512 0.957-18.786a185.6 185.6 0 0 0-0.957-18.786l28.36-16.365c10.754-6.207 14.455-20.003 8.245-30.753L901.6 578.904c-6.21-10.75-20.014-14.444-30.769-8.242l-28.36 16.366a182.736 182.736 0 0 0-32.556-18.821V535.51c0-12.414-10.102-22.511-22.527-22.511H682.612c-12.42 0-22.523 10.102-22.523 22.511v32.7a183.042 183.042 0 0 0-32.556 18.82l-28.364-16.364c-10.755-6.207-24.558-2.513-30.769 8.241l-52.387 90.688c-6.21 10.75-2.51 24.546 8.245 30.753l28.36 16.365a185.599 185.599 0 0 0-0.957 18.786c0 6.26 0.322 12.557 0.957 18.786l-28.36 16.365c-10.754 6.207-14.455 20.003-8.245 30.757l52.387 90.688c6.21 10.754 20.014 14.449 30.769 8.242l28.364-16.366a183.133 183.133 0 0 0 32.556 18.817v32.7c0 12.414 10.103 22.511 22.523 22.511h104.775c12.42 0 22.527-10.102 22.527-22.511v-32.7a183.286 183.286 0 0 0 32.557-18.817l28.359 16.366c10.76 6.207 24.563 2.512 30.769-8.242l52.387-90.688c6.21-10.754 2.514-24.545-8.245-30.757z m-86.075 81.527l-22.471-12.967c-6.869-3.96-15.35-3.403-21.614 1.425a131.873 131.873 0 0 1-30.235 17.478c-7.301 3.012-12.022 10.072-12.022 17.986V902h-76.656v-25.9c0-7.914-4.717-14.974-12.018-17.986a132.01 132.01 0 0 1-30.235-17.478c-6.263-4.828-14.749-5.388-21.614-1.425l-22.471 12.967L572 785.82l22.464-12.963c6.85-3.951 10.607-11.56 9.577-19.384a133.361 133.361 0 0 1-1.148-17.475c0-5.839 0.388-11.719 1.148-17.475 1.034-7.823-2.724-15.429-9.577-19.384L572 686.176l38.33-66.357 22.471 12.967c6.865 3.962 15.347 3.402 21.614-1.425a132.01 132.01 0 0 1 30.235-17.479c7.301-3.011 12.022-10.072 12.022-17.986V570h76.66v25.896c0 7.914 4.717 14.975 12.022 17.986a131.953 131.953 0 0 1 30.235 17.479c6.263 4.823 14.745 5.383 21.61 1.425l22.471-12.967L898 686.176l-22.464 12.963c-6.853 3.955-10.607 11.564-9.577 19.388a133.318 133.318 0 0 1 1.148 17.475c0 5.839-0.384 11.715-1.148 17.475-1.034 7.823 2.724 15.433 9.577 19.384L898 785.824l-38.334 66.354z" fill="#ffffff" p-id="20586"></path></svg>