<?xml version="1.0" standalone="no"?><!DOCTYPE svg PUBLIC "-//W3C//DTD SVG 1.1//EN" "http://www.w3.org/Graphics/SVG/1.1/DTD/svg11.dtd"><svg t="1737552172646" class="icon" viewBox="0 0 1024 1024" version="1.1" xmlns="http://www.w3.org/2000/svg" p-id="4749" xmlns:xlink="http://www.w3.org/1999/xlink" width="200" height="200"><path d="M855.04 56.31999999999999c0-5.12-5.12-5.12-10.24-5.12H455.68c-5.12 0-10.24 0-10.24 5.12L76.80000000000001 419.84c-35.84 35.84-35.84 97.28 0 138.24l276.48 276.48c30.719999999999995 30.719999999999995 76.8 35.84 112.63999999999999 15.359999999999998l61.43999999999999-61.43999999999999 25.6-25.6-15.359999999999998-10.24c-25.6-15.359999999999998-30.719999999999995-51.2-15.359999999999998-81.92l40.96-71.68c10.24-20.48 30.719999999999995-30.719999999999995 51.2-30.719999999999995h10.24l35.84 15.359999999999998 5.12-20.48c0-25.6 30.719999999999995-51.2 61.43999999999999-51.2h81.92l40.96-40.96c5.12-5.12 5.12-10.24 5.12-10.24V66.56c5.12 0 5.12-5.12 0-10.24z m-97.28 245.75999999999996c-40.96 40.96-107.52 40.96-148.48 0-40.96-40.96-40.96-107.52 0-148.48 20.48-20.48 46.08-30.719999999999995 71.68-30.719999999999995 25.6 0 51.2 10.24 71.68 30.719999999999995 46.08 40.96 46.08 107.52 5.12 148.48z" fill="#12c804" p-id="4750"></path><path d="M926.72 788.48V768v-20.48l46.08-35.84c5.12-5.12 5.12-10.24 0-10.24l-40.96-71.68c0-5.12-10.24-5.12-10.24-5.12l-51.2 20.48c-10.24-10.24-20.48-15.359999999999998-35.84-20.48l-15.359999999999998-51.2c0-5.12-5.12-10.24-10.24-10.24h-81.92c-5.12 0-10.24 5.12-10.24 10.24l-10.24 56.31999999999999c-10.24 5.12-25.6 10.24-35.84 20.48l-51.2-20.48c-5.12 0-10.24 0-10.24 5.12l-46.08 66.56c-5.12 5.12 0 10.24 5.12 10.24l46.08 35.84v40.96l-46.08 35.84c-5.12 0-5.12 5.12-5.12 10.24l40.96 71.68c0 5.12 10.24 5.12 10.24 5.12l51.2-20.48c10.24 10.24 20.48 15.359999999999998 35.84 20.48l10.24 56.31999999999999c0 5.12 5.12 10.24 10.24 10.24h81.92c5.12 0 10.24-5.12 10.24-10.24l10.24-56.31999999999999c10.24-5.12 25.6-10.24 35.84-20.48l51.2 20.48c5.12 0 10.24 0 10.24-5.12l40.96-71.68v-10.24l-35.84-35.84z m-158.72 51.2c-40.96 0-71.68-30.719999999999995-71.68-71.68 0-40.96 35.84-71.68 71.68-71.68 40.96 0 71.68 30.719999999999995 71.68 71.68 0 40.96-30.719999999999995 71.68-71.68 71.68z" fill="#12c804" p-id="4751"></path></svg>