<?xml version="1.0" standalone="no"?><!DOCTYPE svg PUBLIC "-//W3C//DTD SVG 1.1//EN" "http://www.w3.org/Graphics/SVG/1.1/DTD/svg11.dtd"><svg t="1737551953108" class="icon" viewBox="0 0 1024 1024" version="1.1" xmlns="http://www.w3.org/2000/svg" p-id="3985" xmlns:xlink="http://www.w3.org/1999/xlink" width="200" height="200"><path d="M266.666667 480a21.333333 21.333333 0 0 1 21.333333 21.333333V512c0 123.477333 103.808 224 232.405333 224 58.709333 0 113.92-21.034667 156.288-58.24l5.461334-4.949333 7.808-7.253334a21.333333 21.333333 0 0 1 30.122666 1.024l14.592 15.573334a21.333333 21.333333 0 0 1-1.024 30.165333l-7.808 7.253333a300.074667 300.074667 0 0 1-205.44 80.426667c-94.122667 0-178.090667-42.666667-232.448-109.226667l0.042667 23.893334a21.333333 21.333333 0 0 1-21.333333 21.333333h-21.333334a21.333333 21.333333 0 0 1-21.333333-21.333333v-213.333334a21.333333 21.333333 0 0 1 21.333333-21.333333h21.333334z m322.048-105.898667l16.213333 13.866667a21.333333 21.333333 0 0 1 2.304 30.08l-25.685333 29.952h26.453333a21.333333 21.333333 0 0 1 21.333333 21.333333v21.333334a21.333333 21.333333 0 0 1-21.333333 21.333333h-64v21.333333h64a21.333333 21.333333 0 0 1 21.333333 21.333334v21.333333a21.333333 21.333333 0 0 1-21.333333 21.333333h-64v42.666667a21.333333 21.333333 0 0 1-21.333333 21.333333h-21.333334a21.333333 21.333333 0 0 1-21.333333-21.333333v-42.666667h-64a21.333333 21.333333 0 0 1-21.333333-21.333333V554.666667a21.333333 21.333333 0 0 1 21.333333-21.333334h64V512h-64a21.333333 21.333333 0 0 1-21.333333-21.333333V469.333333a21.333333 21.333333 0 0 1 21.333333-21.333333h26.410667l-25.642667-29.952a21.333333 21.333333 0 0 1 2.304-30.08l16.213333-13.866667a21.333333 21.333333 0 0 1 30.08 2.304L512 430.848l46.634667-54.442667a21.333333 21.333333 0 0 1 30.08-2.304zM507.477333 224c92.416 0 174.933333 42.24 228.565334 108.245333l-0.042667-22.912a21.333333 21.333333 0 0 1 21.333333-21.333333h21.333334a21.333333 21.333333 0 0 1 21.333333 21.333333v213.333334a21.333333 21.333333 0 0 1-21.333333 21.333333h-21.333334a21.333333 21.333333 0 0 1-21.333333-21.333333V512c0-123.605333-102.186667-224-228.522667-224-60.586667 0-117.333333 23.168-159.658666 63.701333l-4.992 4.949334-7.466667 7.594666a21.333333 21.333333 0 0 1-30.165333 0.298667l-15.232-14.933333a21.333333 21.333333 0 0 1-0.256-30.208l7.466666-7.594667a293.973333 293.973333 0 0 1 210.304-87.808z" fill="#2c2c2c" p-id="3986"></path></svg>